P1
24 7
111111111111111111111111
111101100001100001111101
111101111101111101111101
100001110001110001110001
101101111101111101111101
100001100001100001100001
111111111111111111111111
