P2
15 15
10
0 0 0 10 10 10 0 0 0 0 0 0 0 0 0 
0 0 0 10 5 10 10 0 0 0 0 0 0 0 0 
0 0 10 10 5 5 10 0 0 10 10 10 0 0 0 
0 10 0 0 0 0 10 10 10 0 0 0 10 0 0 
10 0 0 2 0 0 0 0 0 0 0 0 0 10 0 
10 0 0 0 0 0 0 0 0 0 0 0 0 10 10 
10 0 0 0 0 0 0 0 0 0 0 0 0 3 10 
10 0 0 0 0 0 10 10 0 0 0 0 0 3 10 
0 10 0 0 0 10 10 0 10 0 0 0 0 3 10 
0 0 10 10 10 10 0 0 10 0 0 0 0 3 10 
0 0 0 0 0 0 0 0 10 0 0 0 0 3 10 
0 0 0 0 0 0 0 10 0 0 0 0 0 10 0 
0 0 0 0 0 0 0 10 0 0 0 0 10 10 0 
0 0 0 0 0 0 10 3 3 3 3 10 10 0 0 
0 0 0 0 0 0 10 10 10 10 10 0 0 0 0 
