P1
15 15
000000011110000
000000100001000
000001000000100
000001000010111
000001000000001
000001100000011
110000110001110
101100010001000
100011100001000
100000000000100
100000000000100
010000000000100
011000000001000
001100000110000
000011111100000
